<svg width="30" height="31" viewBox="0 0 30 31" fill="none" xmlns="http://www.w3.org/2000/svg">
<path d="M15 4.1167V6.6167" stroke="#874BFF" stroke-width="2" stroke-linecap="round" stroke-linejoin="round"/>
<path d="M15 6.6167C10.8625 6.6167 7.5 9.9792 7.5 14.1167V21.6167C6.25 21.6167 5 22.8667 5 24.1167H15M15 6.6167C19.1375 6.6167 22.5 9.9792 22.5 14.1167V21.6167C23.75 21.6167 25 22.8667 25 24.1167H15" fill="#874BFF"/>
<path d="M15 6.6167C10.8625 6.6167 7.5 9.9792 7.5 14.1167V21.6167C6.25 21.6167 5 22.8667 5 24.1167H15H25C25 22.8667 23.75 21.6167 22.5 21.6167V14.1167C22.5 9.9792 19.1375 6.6167 15 6.6167Z" stroke="#874BFF" stroke-width="2" stroke-linecap="round" stroke-linejoin="round"/>
<path d="M12.5 25.3667C12.5 26.7417 13.625 27.8667 15 27.8667C16.375 27.8667 17.5 26.7417 17.5 25.3667" stroke="#874BFF" stroke-width="2" stroke-linecap="round" stroke-linejoin="round"/>
</svg>
