<svg width="25" height="23" viewBox="0 0 25 23" fill="none" xmlns="http://www.w3.org/2000/svg">
<path d="M12.5 5.5C12.5 5.5 12.5 5.5 11.55 4.25C10.45 2.8 8.825 1.75 6.875 1.75C3.7625 1.75 1.25 4.2625 1.25 7.375C1.25 8.5375 1.6 9.6125 2.2 10.5C3.2125 12.0125 12.5 21.75 12.5 21.75M12.5 5.5C12.5 5.5 12.5 5.5 13.45 4.25C14.55 2.8 16.175 1.75 18.125 1.75C21.2375 1.75 23.75 4.2625 23.75 7.375C23.75 8.5375 23.4 9.6125 22.8 10.5C21.7875 12.0125 12.5 21.75 12.5 21.75" stroke="black" stroke-width="2" stroke-linecap="round" stroke-linejoin="round"/>
</svg>
